<svg width="512" height="512" viewBox="0 0 512 512" fill="none" xmlns="http://www.w3.org/2000/svg">
<g clip-path="url(#clip0_404_1061)">
<g clip-path="url(#clip1_404_1061)">
<path d="M468.234 98.088C421.25 51.1037 345.302 45.3111 273.861 76.8485C262.597 81.9975 249.725 81.9975 238.14 76.8485C167.02 45.6329 91.0724 51.1037 43.7663 98.088C-22.8484 164.703 -6.11432 289.565 80.7744 376.776C132.586 428.587 197.592 455.297 255.839 454.654C314.087 455.297 379.092 428.587 430.904 376.776C518.115 289.565 534.527 165.025 467.912 98.4098L468.234 98.088Z" fill="#AD94DD"/>
<path d="M468.234 98.088C534.849 164.703 518.436 289.565 431.226 376.454C379.414 428.265 314.409 454.975 256.161 454.332C197.913 454.975 132.908 428.265 81.0962 376.454C81.0962 376.454 224.302 463.986 338.866 387.074C453.431 310.161 517.149 194.953 468.234 98.088Z" fill="#9483C4"/>
<path d="M258.414 457.55C258.414 457.55 256.805 457.55 255.839 457.55C194.052 458.515 129.368 429.553 78.5218 378.707C-9.33241 290.531 -26.0665 163.737 41.8354 95.8353C88.4979 49.1729 164.123 40.8058 239.427 73.9522C250.047 78.4576 261.954 78.4576 272.573 73.9522C347.877 40.8058 423.502 49.1729 470.487 95.8353C538.389 163.737 521.654 290.531 433.478 378.707C383.276 428.909 319.558 457.55 258.735 457.55H258.414ZM255.839 451.436C315.052 452.079 379.736 423.438 428.651 374.523C514.253 288.921 530.987 165.99 465.659 100.662C420.928 55.6091 347.877 47.5638 275.148 79.7448C262.919 85.2156 249.081 85.2156 237.174 79.7448C164.123 47.5638 91.0724 55.6091 46.0189 100.341C14.4815 131.878 0.965516 177.575 7.72353 229.387C14.4815 281.198 41.5136 332.688 83.0271 374.523C131.942 423.438 196.626 452.401 255.839 451.436Z" fill="black"/>
<path d="M323.741 255.775C327.281 262.211 332.43 271.865 334.039 278.623C335.97 287.312 334.039 299.219 321.81 303.403C309.581 307.586 298.962 304.368 290.273 296.001C281.584 287.634 277.722 273.475 277.722 266.395" fill="#433068"/>
<path d="M311.512 307.908C303.145 307.908 295.422 304.69 288.664 297.932C279.331 288.921 275.148 274.44 275.148 266.717C275.148 265.429 276.113 264.464 277.4 264.464C278.688 264.464 279.653 265.429 279.653 266.717C279.653 273.153 283.515 286.669 291.56 294.392C299.927 302.437 309.903 305.012 320.523 301.15C331.143 297.61 333.074 286.991 331.143 278.945C329.855 272.509 324.385 262.533 321.167 256.74C320.523 255.453 321.167 254.166 322.132 253.522C323.419 252.879 324.706 253.522 325.35 254.488C328.89 260.924 334.361 270.9 335.648 277.98C337.901 288.6 334.361 301.15 321.81 305.656C318.27 306.943 314.409 307.586 310.869 307.586L311.512 307.908Z" fill="black"/>
<path d="M312.478 284.094C312.478 284.094 311.191 284.094 310.547 283.129C301.536 272.187 300.893 262.533 300.571 262.211C300.571 260.924 301.536 259.637 302.823 259.637C304.111 259.637 305.398 260.602 305.398 261.889C305.398 261.889 306.363 270.578 314.087 280.233C315.052 281.198 314.73 282.807 313.765 283.451C313.443 283.772 312.8 284.094 312.156 284.094H312.478Z" fill="black"/>
<path d="M214.004 202.355C220.047 202.355 224.945 194.574 224.945 184.977C224.945 175.379 220.047 167.599 214.004 167.599C207.961 167.599 203.062 175.379 203.062 184.977C203.062 194.574 207.961 202.355 214.004 202.355Z" fill="black"/>
<path d="M297.996 202.355C304.039 202.355 308.938 194.574 308.938 184.977C308.938 175.379 304.039 167.599 297.996 167.599C291.953 167.599 287.055 175.379 287.055 184.977C287.055 194.574 291.953 202.355 297.996 202.355Z" fill="black"/>
<path d="M251.334 270.578C175.708 270.578 114.243 234.536 114.243 189.804C114.243 188.517 115.208 187.551 116.495 187.551C117.783 187.551 118.748 188.517 118.748 189.804C118.748 231.639 178.283 265.751 251.012 265.751C323.741 265.751 383.276 231.639 383.276 189.804C383.276 188.517 384.241 187.551 385.529 187.551C386.816 187.551 387.781 188.517 387.781 189.804C387.781 234.214 326.316 270.578 250.69 270.578H251.334Z" fill="black"/>
<path d="M385.85 189.804C385.85 196.884 384.885 204.285 381.989 210.722C379.092 217.48 375.231 223.594 370.404 229.065C360.749 240.006 348.199 248.052 335.326 254.166C309.26 266.717 279.975 271.866 251.334 271.866C236.852 271.866 222.371 270.578 208.211 267.682C201.131 266.395 194.052 264.464 187.294 262.211C180.536 259.959 173.778 257.384 167.02 254.166C153.825 248.052 141.597 239.685 131.942 229.065C127.115 223.594 122.932 217.48 120.357 210.722C117.461 203.964 116.174 196.884 116.495 189.804V192.378L116.817 193.666V194.953L117.461 197.527L118.104 200.102C118.426 201.711 119.07 203.32 119.713 204.929L120.679 207.182C120.679 207.182 121.323 208.791 121.966 209.434C125.184 215.549 129.368 221.02 134.517 225.847C139.344 230.674 145.136 234.857 150.929 238.719C156.722 242.259 162.836 245.477 169.272 248.373C182.145 253.844 195.661 257.706 209.177 260.28C215.935 261.568 223.015 262.533 229.773 263.177C236.852 263.82 243.61 264.142 250.69 264.142C257.77 264.142 264.528 264.142 271.608 263.177C278.688 262.533 285.446 261.568 292.204 260.28C306.042 258.028 319.236 253.844 332.108 248.373C338.544 245.799 344.659 242.581 350.451 238.719C356.244 235.179 362.037 230.996 366.864 225.847C372.013 221.02 376.196 215.549 379.414 209.434C379.736 208.791 380.058 207.825 380.702 207.182L381.667 204.929C382.311 203.32 382.954 201.711 383.276 200.102L383.92 197.527L384.563 194.953V193.666L384.885 192.378V189.804H385.85Z" fill="black"/>
<path d="M328.568 160.519C326.959 160.519 325.35 159.232 325.35 157.301C325.35 150.221 319.558 144.429 312.478 144.429C310.869 144.429 309.26 143.141 309.26 141.211C309.26 139.28 310.547 137.992 312.478 137.992C323.097 137.992 331.465 146.681 331.465 156.979C331.465 158.588 330.177 160.197 328.246 160.197L328.568 160.519Z" fill="black"/>
<path d="M183.432 160.519C181.823 160.519 180.214 159.232 180.214 157.301C180.214 146.681 188.903 138.314 199.201 138.314C200.81 138.314 202.419 139.602 202.419 141.532C202.419 143.463 201.131 144.75 199.201 144.75C192.121 144.75 186.328 150.543 186.328 157.623C186.328 159.232 185.041 160.841 183.11 160.841L183.432 160.519Z" fill="black"/>
<path d="M116.495 191.735C111.99 191.735 107.485 190.126 104.267 186.586C103.301 185.62 103.301 184.333 104.267 183.368C105.232 182.402 106.519 182.402 107.485 183.368C109.737 185.62 112.955 186.908 116.495 186.908C120.035 186.908 122.932 185.62 125.506 183.368C126.471 182.402 127.759 182.402 128.724 183.368C129.69 184.333 129.69 185.62 128.724 186.586C125.184 190.126 121.001 191.735 116.495 191.735Z" fill="black"/>
<path d="M385.85 191.735C381.345 191.735 376.84 190.126 373.622 186.586C372.656 185.62 372.656 184.333 373.622 183.368C374.587 182.402 375.874 182.402 376.84 183.368C379.092 185.62 382.311 186.908 385.85 186.908C389.39 186.908 392.287 185.62 394.861 183.368C395.827 182.402 397.114 182.402 398.079 183.368C399.045 184.333 399.045 185.62 398.079 186.586C394.539 190.126 390.356 191.735 385.85 191.735Z" fill="black"/>
<path d="M256.161 220.054C267.003 220.054 275.791 211.265 275.791 200.424C275.791 189.582 267.003 180.793 256.161 180.793C245.319 180.793 236.531 189.582 236.531 200.424C236.531 211.265 245.319 220.054 256.161 220.054Z" fill="#433068"/>
<path d="M256.161 222.307C243.932 222.307 234.278 212.331 234.278 200.424C234.278 188.517 244.254 178.541 256.161 178.541C268.068 178.541 278.044 188.517 278.044 200.424C278.044 212.331 268.068 222.307 256.161 222.307ZM256.161 183.368C246.828 183.368 239.105 191.091 239.105 200.424C239.105 209.756 246.828 217.48 256.161 217.48C265.493 217.48 273.217 209.756 273.217 200.424C273.217 191.091 265.493 183.368 256.161 183.368Z" fill="black"/>
<path d="M211.429 181.115C213.74 181.115 215.613 179.242 215.613 176.932C215.613 174.621 213.74 172.748 211.429 172.748C209.119 172.748 207.246 174.621 207.246 176.932C207.246 179.242 209.119 181.115 211.429 181.115Z" fill="white"/>
<path d="M295.422 181.115C297.732 181.115 299.605 179.242 299.605 176.932C299.605 174.621 297.732 172.748 295.422 172.748C293.111 172.748 291.238 174.621 291.238 176.932C291.238 179.242 293.111 181.115 295.422 181.115Z" fill="white"/>
<path d="M248.759 198.171C251.07 198.171 252.943 196.298 252.943 193.987C252.943 191.677 251.07 189.804 248.759 189.804C246.449 189.804 244.576 191.677 244.576 193.987C244.576 196.298 246.449 198.171 248.759 198.171Z" fill="white"/>
</g>
</g>
<defs>
<clipPath id="clip0_404_1061">
<rect width="512" height="512" fill="white"/>
</clipPath>
<clipPath id="clip1_404_1061">
<rect width="512" height="403.55" fill="white" transform="translate(0 54)"/>
</clipPath>
</defs>
</svg>
