<svg width="16" height="16" viewBox="0 0 16 16" fill="none" xmlns="http://www.w3.org/2000/svg">
<g id="icon_board_list">
<g id="Vector">
<path fill-rule="evenodd" clip-rule="evenodd" d="M1.5 3C1.5 2.72386 1.72386 2.5 2 2.5H14C14.2761 2.5 14.5 2.72386 14.5 3C14.5 3.27614 14.2761 3.5 14 3.5H2C1.72386 3.5 1.5 3.27614 1.5 3Z" fill="#231E1E"/>
<path fill-rule="evenodd" clip-rule="evenodd" d="M1.5 6.33333C1.5 6.05719 1.72386 5.83333 2 5.83333H8.31333C8.58948 5.83333 8.81333 6.05719 8.81333 6.33333C8.81333 6.60948 8.58948 6.83333 8.31333 6.83333H2C1.72386 6.83333 1.5 6.60948 1.5 6.33333Z" fill="#231E1E"/>
<path fill-rule="evenodd" clip-rule="evenodd" d="M1.5 9.66667C1.5 9.39052 1.72386 9.16667 2 9.16667H14C14.2761 9.16667 14.5 9.39052 14.5 9.66667C14.5 9.94281 14.2761 10.1667 14 10.1667H2C1.72386 10.1667 1.5 9.94281 1.5 9.66667Z" fill="#231E1E"/>
<path fill-rule="evenodd" clip-rule="evenodd" d="M1.5 13C1.5 12.7239 1.72386 12.5 2 12.5H8.31333C8.58948 12.5 8.81333 12.7239 8.81333 13C8.81333 13.2761 8.58948 13.5 8.31333 13.5H2C1.72386 13.5 1.5 13.2761 1.5 13Z" fill="#231E1E"/>
</g>
</g>
</svg>
