<svg width="16" height="16" viewBox="0 0 16 16" fill="none" xmlns="http://www.w3.org/2000/svg">
<g id="icon_board_thumbnail">
<g id="Vector">
<path fill-rule="evenodd" clip-rule="evenodd" d="M8.83301 3.00002C8.83301 2.72388 9.05686 2.50002 9.33301 2.50002H13.9997C14.2758 2.50002 14.4997 2.72388 14.4997 3.00002C14.4997 3.27616 14.2758 3.50002 13.9997 3.50002H9.33301C9.05686 3.50002 8.83301 3.27616 8.83301 3.00002Z" fill="#231E1E"/>
<path fill-rule="evenodd" clip-rule="evenodd" d="M8.83301 9.66669C8.83301 9.39054 9.05686 9.16669 9.33301 9.16669H13.9997C14.2758 9.16669 14.4997 9.39054 14.4997 9.66669C14.4997 9.94283 14.2758 10.1667 13.9997 10.1667H9.33301C9.05686 10.1667 8.83301 9.94283 8.83301 9.66669Z" fill="#231E1E"/>
<path fill-rule="evenodd" clip-rule="evenodd" d="M8.83301 6.33335C8.83301 6.05721 9.05686 5.83335 9.33301 5.83335H13.9997C14.2758 5.83335 14.4997 6.05721 14.4997 6.33335C14.4997 6.6095 14.2758 6.83335 13.9997 6.83335H9.33301C9.05686 6.83335 8.83301 6.6095 8.83301 6.33335Z" fill="#231E1E"/>
<path fill-rule="evenodd" clip-rule="evenodd" d="M8.83301 13C8.83301 12.7239 9.05686 12.5 9.33301 12.5H13.9997C14.2758 12.5 14.4997 12.7239 14.4997 13C14.4997 13.2762 14.2758 13.5 13.9997 13.5H9.33301C9.05686 13.5 8.83301 13.2762 8.83301 13Z" fill="#231E1E"/>
<path fill-rule="evenodd" clip-rule="evenodd" d="M2.22279 2.55647C2.53054 2.24872 2.95648 2.16669 3.37967 2.16669H5.27967C5.70517 2.16669 6.13268 2.24828 6.44152 2.5556C6.75099 2.86354 6.83301 3.29021 6.83301 3.71335V5.62002C6.83301 6.04316 6.75099 6.46983 6.44152 6.77778C6.13268 7.08509 5.70517 7.16669 5.27967 7.16669H3.37967C2.95653 7.16669 2.52986 7.08467 2.22192 6.7752C1.9146 6.46636 1.83301 6.03885 1.83301 5.61335V3.71335C1.83301 3.29016 1.91504 2.86422 2.22279 2.55647ZM2.92989 3.26357C2.90098 3.29249 2.83301 3.38988 2.83301 3.71335V5.61335C2.83301 5.94119 2.90142 6.04034 2.93077 6.06984C2.95948 6.0987 3.05615 6.16669 3.37967 6.16669H5.27967C5.60752 6.16669 5.70667 6.09828 5.73616 6.06893C5.76502 6.04021 5.83301 5.94354 5.83301 5.62002V3.71335C5.83301 3.38983 5.76502 3.29316 5.73616 3.26445C5.70667 3.2351 5.60752 3.16669 5.27967 3.16669H3.37967C3.0562 3.16669 2.95881 3.23466 2.92989 3.26357Z" fill="#231E1E"/>
<path fill-rule="evenodd" clip-rule="evenodd" d="M2.22279 9.22313C2.53054 8.91538 2.95648 8.83335 3.37967 8.83335H5.27967C5.70517 8.83335 6.13268 8.91494 6.44152 9.22226C6.75099 9.53021 6.83301 9.95687 6.83301 10.38V12.2867C6.83301 12.7098 6.75099 13.1365 6.44152 13.4444C6.13268 13.7518 5.70517 13.8334 5.27967 13.8334H3.37967C2.95653 13.8334 2.52986 13.7513 2.22192 13.4419C1.9146 13.133 1.83301 12.7055 1.83301 12.28V10.38C1.83301 9.95683 1.91504 9.53088 2.22279 9.22313ZM2.92989 9.93024C2.90098 9.95916 2.83301 10.0565 2.83301 10.38V12.28C2.83301 12.6079 2.90142 12.707 2.93077 12.7365C2.95948 12.7654 3.05615 12.8334 3.37967 12.8334H5.27967C5.60752 12.8334 5.70667 12.7649 5.73616 12.7356C5.76502 12.7069 5.83301 12.6102 5.83301 12.2867V10.38C5.83301 10.0565 5.76502 9.95983 5.73616 9.93111C5.70667 9.90176 5.60752 9.83335 5.27967 9.83335H3.37967C3.0562 9.83335 2.95881 9.90132 2.92989 9.93024Z" fill="#231E1E"/>
</g>
</g>
</svg>
