<svg width="24" height="25" viewBox="0 0 24 25" fill="none" xmlns="http://www.w3.org/2000/svg">
<g id="icon_board_thumbnail">
<g id="Vector">
<path fill-rule="evenodd" clip-rule="evenodd" d="M13.25 5C13.25 4.58579 13.5858 4.25 14 4.25H21C21.4142 4.25 21.75 4.58579 21.75 5C21.75 5.41421 21.4142 5.75 21 5.75H14C13.5858 5.75 13.25 5.41421 13.25 5Z" fill="#A995D8"/>
<path fill-rule="evenodd" clip-rule="evenodd" d="M13.25 15C13.25 14.5858 13.5858 14.25 14 14.25H21C21.4142 14.25 21.75 14.5858 21.75 15C21.75 15.4142 21.4142 15.75 21 15.75H14C13.5858 15.75 13.25 15.4142 13.25 15Z" fill="#A995D8"/>
<path fill-rule="evenodd" clip-rule="evenodd" d="M13.25 10C13.25 9.58579 13.5858 9.25 14 9.25H21C21.4142 9.25 21.75 9.58579 21.75 10C21.75 10.4142 21.4142 10.75 21 10.75H14C13.5858 10.75 13.25 10.4142 13.25 10Z" fill="#A995D8"/>
<path fill-rule="evenodd" clip-rule="evenodd" d="M13.25 20C13.25 19.5858 13.5858 19.25 14 19.25H21C21.4142 19.25 21.75 19.5858 21.75 20C21.75 20.4142 21.4142 20.75 21 20.75H14C13.5858 20.75 13.25 20.4142 13.25 20Z" fill="#A995D8"/>
<path fill-rule="evenodd" clip-rule="evenodd" d="M3.33467 4.33467C3.79629 3.87305 4.43521 3.75 5.07 3.75H7.92C8.55824 3.75 9.19951 3.87239 9.66277 4.33336C10.127 4.79528 10.25 5.43528 10.25 6.07V8.93C10.25 9.56472 10.127 10.2047 9.66277 10.6666C9.19951 11.1276 8.55824 11.25 7.92 11.25H5.07C4.43528 11.25 3.79528 11.127 3.33336 10.6628C2.87239 10.1995 2.75 9.55824 2.75 8.92V6.07C2.75 5.43521 2.87305 4.79629 3.33467 4.33467ZM4.39533 5.39533C4.35195 5.43871 4.25 5.58479 4.25 6.07V8.92C4.25 9.41176 4.35261 9.56049 4.39664 9.60473C4.43972 9.64802 4.58472 9.75 5.07 9.75H7.92C8.41176 9.75 8.56049 9.64739 8.60473 9.60336C8.64802 9.56028 8.75 9.41528 8.75 8.93V6.07C8.75 5.58472 8.64802 5.43972 8.60473 5.39664C8.56049 5.35261 8.41176 5.25 7.92 5.25H5.07C4.58479 5.25 4.43871 5.35195 4.39533 5.39533Z" fill="#A995D8"/>
<path fill-rule="evenodd" clip-rule="evenodd" d="M3.33467 14.3347C3.79629 13.873 4.43521 13.75 5.07 13.75H7.92C8.55824 13.75 9.19951 13.8724 9.66277 14.3334C10.127 14.7953 10.25 15.4353 10.25 16.07V18.93C10.25 19.5647 10.127 20.2047 9.66277 20.6666C9.19951 21.1276 8.55824 21.25 7.92 21.25H5.07C4.43528 21.25 3.79528 21.127 3.33336 20.6628C2.87239 20.1995 2.75 19.5582 2.75 18.92V16.07C2.75 15.4352 2.87305 14.7963 3.33467 14.3347ZM4.39533 15.3953C4.35195 15.4387 4.25 15.5848 4.25 16.07V18.92C4.25 19.4118 4.35261 19.5605 4.39664 19.6047C4.43972 19.648 4.58472 19.75 5.07 19.75H7.92C8.41176 19.75 8.56049 19.6474 8.60473 19.6034C8.64802 19.5603 8.75 19.4153 8.75 18.93V16.07C8.75 15.5847 8.64802 15.4397 8.60473 15.3966C8.56049 15.3526 8.41176 15.25 7.92 15.25H5.07C4.58479 15.25 4.43871 15.352 4.39533 15.3953Z" fill="#A995D8"/>
</g>
</g>
</svg>
