<svg width="20" height="20" viewBox="0 0 20 20" fill="none" xmlns="http://www.w3.org/2000/svg">
<g id="icon_message">
<path id="Icon (Stroke)" fill-rule="evenodd" clip-rule="evenodd" d="M9.99929 3.25C6.27183 3.25 3.25 6.27201 3.25 10C3.25 13.728 6.27183 16.75 9.99929 16.75C11.2007 16.75 12.3266 16.4367 13.3023 15.888C13.4693 15.794 13.666 15.7676 13.8519 15.8141L16.5998 16.5011L16.1191 13.1357C16.0992 12.9967 16.1188 12.8549 16.1756 12.7264C16.5437 11.8936 16.7486 10.9717 16.7486 10C16.7486 6.27201 13.7268 3.25 9.99929 3.25ZM1.75 10C1.75 5.44372 5.44327 1.75 9.99929 1.75C14.5553 1.75 18.2486 5.44372 18.2486 10C18.2486 11.1069 18.0302 12.1645 17.6336 13.1308L18.2425 17.3932C18.2778 17.6404 18.1877 17.889 18.0023 18.0562C17.8169 18.2235 17.5603 18.2875 17.3181 18.2269L13.7696 17.3397C12.6389 17.9217 11.3564 18.25 9.99929 18.25C5.44327 18.25 1.75 14.5563 1.75 10ZM6.24964 9.25C6.66386 9.25 6.99964 9.58579 6.99964 10V10.0705C6.99964 10.4847 6.66386 10.8205 6.24964 10.8205C5.83543 10.8205 5.49964 10.4847 5.49964 10.0705V10C5.49964 9.58579 5.83543 9.25 6.24964 9.25ZM9.99929 9.25C10.4135 9.25 10.7493 9.58579 10.7493 10V10.0705C10.7493 10.4847 10.4135 10.8205 9.99929 10.8205C9.58508 10.8205 9.24929 10.4847 9.24929 10.0705V10C9.24929 9.58579 9.58508 9.25 9.99929 9.25ZM13.7489 9.25C14.1631 9.25 14.4989 9.58579 14.4989 10V10.0705C14.4989 10.4847 14.1631 10.8205 13.7489 10.8205C13.3347 10.8205 12.9989 10.4847 12.9989 10.0705V10C12.9989 9.58579 13.3347 9.25 13.7489 9.25Z" fill="white"/>
</g>
</svg>
