<svg width="24" height="25" viewBox="0 0 24 25" fill="none" xmlns="http://www.w3.org/2000/svg">
<g id="icon_board_image">
<g id="Vector">
<path fill-rule="evenodd" clip-rule="evenodd" d="M2.25 15.5C2.25 15.0858 2.58579 14.75 3 14.75H10C10.4142 14.75 10.75 15.0858 10.75 15.5C10.75 15.9142 10.4142 16.25 10 16.25H3C2.58579 16.25 2.25 15.9142 2.25 15.5Z" fill="#231E1E"/>
<path fill-rule="evenodd" clip-rule="evenodd" d="M13.25 15.5C13.25 15.0858 13.5858 14.75 14 14.75H21C21.4142 14.75 21.75 15.0858 21.75 15.5C21.75 15.9142 21.4142 16.25 21 16.25H14C13.5858 16.25 13.25 15.9142 13.25 15.5Z" fill="#231E1E"/>
<path fill-rule="evenodd" clip-rule="evenodd" d="M2.25 19C2.25 18.5858 2.58579 18.25 3 18.25H8C8.41421 18.25 8.75 18.5858 8.75 19C8.75 19.4142 8.41421 19.75 8 19.75H3C2.58579 19.75 2.25 19.4142 2.25 19Z" fill="#231E1E"/>
<path fill-rule="evenodd" clip-rule="evenodd" d="M13.25 19C13.25 18.5858 13.5858 18.25 14 18.25H19C19.4142 18.25 19.75 18.5858 19.75 19C19.75 19.4142 19.4142 19.75 19 19.75H14C13.5858 19.75 13.25 19.4142 13.25 19Z" fill="#231E1E"/>
<path fill-rule="evenodd" clip-rule="evenodd" d="M2.8955 4.3955C3.39921 3.8918 4.10355 3.75 4.83167 3.75H8.15667C8.88907 3.75 9.59618 3.89114 10.1017 4.3942C10.6082 4.8982 10.75 5.60362 10.75 6.33167V9.66833C10.75 10.3964 10.6082 11.1018 10.1017 11.6058C9.59618 12.1089 8.88907 12.25 8.15667 12.25H4.83167C4.10362 12.25 3.3982 12.1082 2.8942 11.6017C2.39114 11.0962 2.25 10.3891 2.25 9.65667V6.33167C2.25 5.60355 2.3918 4.89921 2.8955 4.3955ZM3.95616 5.45616C3.8707 5.54162 3.75 5.75312 3.75 6.33167V9.65667C3.75 10.2426 3.87136 10.4572 3.95747 10.5437C4.04263 10.6293 4.25305 10.75 4.83167 10.75H8.15667C8.7426 10.75 8.95715 10.6286 9.04369 10.5425C9.12927 10.4574 9.25 10.2469 9.25 9.66833V6.33167C9.25 5.75305 9.12927 5.54263 9.04369 5.45747C8.95715 5.37136 8.7426 5.25 8.15667 5.25H4.83167C4.25312 5.25 4.04162 5.3707 3.95616 5.45616Z" fill="#231E1E"/>
<path fill-rule="evenodd" clip-rule="evenodd" d="M13.8955 4.3955C14.3992 3.8918 15.1035 3.75 15.8317 3.75H19.1567C19.8891 3.75 20.5962 3.89114 21.1017 4.3942C21.6082 4.8982 21.75 5.60362 21.75 6.33167V9.66833C21.75 10.3964 21.6082 11.1018 21.1017 11.6058C20.5962 12.1089 19.8891 12.25 19.1567 12.25H15.8317C15.1036 12.25 14.3982 12.1082 13.8942 11.6017C13.3911 11.0962 13.25 10.3891 13.25 9.65667V6.33167C13.25 5.60355 13.3918 4.89921 13.8955 4.3955ZM14.9562 5.45616C14.8707 5.54162 14.75 5.75312 14.75 6.33167V9.65667C14.75 10.2426 14.8714 10.4572 14.9575 10.5437C15.0426 10.6293 15.2531 10.75 15.8317 10.75H19.1567C19.7426 10.75 19.9572 10.6286 20.0437 10.5425C20.1293 10.4574 20.25 10.2469 20.25 9.66833V6.33167C20.25 5.75305 20.1293 5.54263 20.0437 5.45747C19.9572 5.37136 19.7426 5.25 19.1567 5.25H15.8317C15.2531 5.25 15.0416 5.3707 14.9562 5.45616Z" fill="#231E1E"/>
</g>
</g>
</svg>
