<svg width="24" height="25" viewBox="0 0 24 25" fill="none" xmlns="http://www.w3.org/2000/svg">
<g id="icon_board_list">
<g id="Vector">
<path fill-rule="evenodd" clip-rule="evenodd" d="M2.25 5C2.25 4.58579 2.58579 4.25 3 4.25H21C21.4142 4.25 21.75 4.58579 21.75 5C21.75 5.41421 21.4142 5.75 21 5.75H3C2.58579 5.75 2.25 5.41421 2.25 5Z" fill="#A995D8"/>
<path fill-rule="evenodd" clip-rule="evenodd" d="M2.25 10C2.25 9.58579 2.58579 9.25 3 9.25H12.47C12.8842 9.25 13.22 9.58579 13.22 10C13.22 10.4142 12.8842 10.75 12.47 10.75H3C2.58579 10.75 2.25 10.4142 2.25 10Z" fill="#A995D8"/>
<path fill-rule="evenodd" clip-rule="evenodd" d="M2.25 15C2.25 14.5858 2.58579 14.25 3 14.25H21C21.4142 14.25 21.75 14.5858 21.75 15C21.75 15.4142 21.4142 15.75 21 15.75H3C2.58579 15.75 2.25 15.4142 2.25 15Z" fill="#A995D8"/>
<path fill-rule="evenodd" clip-rule="evenodd" d="M2.25 20C2.25 19.5858 2.58579 19.25 3 19.25H12.47C12.8842 19.25 13.22 19.5858 13.22 20C13.22 20.4142 12.8842 20.75 12.47 20.75H3C2.58579 20.75 2.25 20.4142 2.25 20Z" fill="#A995D8"/>
</g>
</g>
</svg>
