<svg width="20" height="21" viewBox="0 0 20 21" fill="none" xmlns="http://www.w3.org/2000/svg">
<g id="icon_mail">
<path id="Icon (Stroke)" fill-rule="evenodd" clip-rule="evenodd" d="M9.61435 3.19009C9.84133 3.05401 10.1232 3.04762 10.3562 3.1733L17.3783 6.96236C17.9062 7.24725 18.25 7.79466 18.25 8.40623V15.368C18.25 16.8047 17.0451 17.9167 15.625 17.9167H4.375C2.95495 17.9167 1.75 16.8047 1.75 15.368C1.75 15.368 1.75 15.3681 1.75 15.368V8.82837C1.75 8.24499 2.06334 7.71725 2.55497 7.4225L9.61435 3.19009ZM3.25 15.368C3.25 15.368 3.25 15.3681 3.25 15.368C3.25 15.9181 3.72398 16.4167 4.375 16.4167H15.625C16.276 16.4167 16.75 15.9181 16.75 15.368V9.78746L10.4084 13.9052C10.1641 14.0638 9.84998 14.0666 9.60285 13.9124L10 13.2762C9.60285 13.9124 9.60289 13.9124 9.60285 13.9124L9.29703 13.7219C9.10188 13.6006 8.82257 13.4271 8.4862 13.219C7.81331 12.8026 6.91272 12.2477 6.00088 11.693C5.08806 11.1378 4.16791 10.5853 3.45448 10.1725C3.38398 10.1317 3.31576 10.0924 3.25 10.0548V15.368ZM3.61299 8.5371C3.7908 8.63591 3.99054 8.74969 4.20567 8.87416C4.93366 9.29535 5.86507 9.85475 6.78038 10.4115C7.69665 10.9688 8.60076 11.5259 9.27552 11.9434C9.56037 12.1197 9.80448 12.2712 9.99152 12.3874L16.4734 8.17856L10.0195 4.6961L3.61299 8.5371Z" fill="white"/>
</g>
</svg>
