<svg width="24" height="25" viewBox="0 0 24 25" fill="none" xmlns="http://www.w3.org/2000/svg">
<g id="user-profile-check">
<path id="Icon (Stroke)" fill-rule="evenodd" clip-rule="evenodd" d="M10.8004 3.90039C9.36445 3.90039 8.20039 5.06445 8.20039 6.50039C8.20039 7.93633 9.36445 9.10039 10.8004 9.10039C12.2363 9.10039 13.4004 7.93633 13.4004 6.50039C13.4004 5.06445 12.2363 3.90039 10.8004 3.90039ZM6.20039 6.50039C6.20039 3.95988 8.25988 1.90039 10.8004 1.90039C13.3409 1.90039 15.4004 3.95988 15.4004 6.50039C15.4004 9.0409 13.3409 11.1004 10.8004 11.1004C8.25988 11.1004 6.20039 9.0409 6.20039 6.50039ZM1.4008 18.4999C1.40108 15.9596 3.46049 13.9004 6.00079 13.9004H13.2002C13.7525 13.9004 14.2002 14.3481 14.2002 14.9004C14.2002 15.4527 13.7525 15.9004 13.2002 15.9004H6.00079C4.56497 15.9004 3.40096 17.0643 3.4008 18.5001L3.40039 22.1005C3.40033 22.6528 2.95256 23.1005 2.40028 23.1004C1.84799 23.1003 1.40033 22.6526 1.40039 22.1003L1.4008 18.4999ZM20.8933 14.1933C21.2838 13.8028 21.917 13.8028 22.3075 14.1933C22.698 14.5838 22.698 15.217 22.3075 15.6075L18.1075 19.8075C17.717 20.198 17.0838 20.198 16.6933 19.8075L15.4933 18.6075C15.1028 18.217 15.1028 17.5838 15.4933 17.1933C15.8838 16.8028 16.517 16.8028 16.9075 17.1933L17.4004 17.6862L20.8933 14.1933Z" fill="#231E1E"/>
</g>
</svg>
