<svg width="20" height="20" viewBox="0 0 20 20" fill="none" xmlns="http://www.w3.org/2000/svg">
<g id="icon_search">
<path id="Icon (Stroke)" fill-rule="evenodd" clip-rule="evenodd" d="M9.53366 2.50001C6.38564 2.50001 3.83366 5.05199 3.83366 8.20001C3.83366 11.348 6.38564 13.9 9.53366 13.9C11.0859 13.9 12.4932 13.2796 13.5211 12.2731C13.5224 12.2719 13.5237 12.2706 13.525 12.2693C14.5795 11.2349 15.2337 9.79383 15.2337 8.20001C15.2337 5.05199 12.6817 2.50001 9.53366 2.50001ZM15.2651 12.8285C16.2878 11.5636 16.9003 9.95333 16.9003 8.20001C16.9003 4.13151 13.6022 0.833344 9.53366 0.833344C5.46516 0.833344 2.16699 4.13151 2.16699 8.20001C2.16699 12.2685 5.46516 15.5667 9.53366 15.5667C11.2482 15.5667 12.8259 14.981 14.0777 13.9987L16.4209 16.2656C16.7517 16.5856 17.2793 16.5769 17.5993 16.2461C17.9193 15.9153 17.9105 15.3877 17.5797 15.0677L15.2651 12.8285Z" fill="#231E1E"/>
</g>
</svg>
