<svg width="14" height="14" viewBox="0 0 14 14" fill="none" xmlns="http://www.w3.org/2000/svg">
<g id="icon_people" opacity="0.6">
<path id="Icon (Stroke)" fill-rule="evenodd" clip-rule="evenodd" d="M5.6651 3.23334C5.05759 3.23334 4.5651 3.72582 4.5651 4.33334C4.5651 4.94085 5.05759 5.43334 5.6651 5.43334C6.27262 5.43334 6.7651 4.94085 6.7651 4.33334C6.7651 3.72582 6.27262 3.23334 5.6651 3.23334ZM3.5651 4.33334C3.5651 3.17354 4.50531 2.23334 5.6651 2.23334C6.8249 2.23334 7.7651 3.17354 7.7651 4.33334C7.7651 5.49314 6.8249 6.43334 5.6651 6.43334C4.50531 6.43334 3.5651 5.49314 3.5651 4.33334ZM8.66563 2.69703C8.80391 2.458 9.10977 2.37631 9.3488 2.51459C9.97519 2.87693 10.3984 3.55541 10.3984 4.33334C10.3984 5.11126 9.97519 5.78974 9.3488 6.15209C9.10977 6.29036 8.8039 6.20868 8.66563 5.96965C8.52736 5.73062 8.60904 5.42475 8.84807 5.28648C9.17817 5.09553 9.39844 4.73986 9.39844 4.33334C9.39844 3.92681 9.17817 3.57114 8.84807 3.38019C8.60904 3.24192 8.52736 2.93606 8.66563 2.69703ZM2.15096 8.23986C2.9729 7.60206 4.15933 7.24498 5.6651 7.24498C7.17088 7.24498 8.3573 7.60206 9.17925 8.23986C10.0123 8.88626 10.4318 9.79286 10.4318 10.7833C10.4318 11.2755 10.0614 11.7667 9.49674 11.7667H1.83347C1.26882 11.7667 0.898438 11.2755 0.898438 10.7833C0.898438 9.79286 1.31794 8.88626 2.15096 8.23986ZM1.89849 10.7667H9.43171C9.42721 10.0859 9.1456 9.4795 8.5662 9.02991C7.971 8.56805 7.02409 8.24498 5.6651 8.24498C4.30612 8.24498 3.35921 8.56805 2.76401 9.02991C2.18461 9.4795 1.903 10.0859 1.89849 10.7667ZM10.7979 7.68407C10.9632 7.46285 11.2765 7.41751 11.4977 7.58279C11.9553 7.92469 12.3486 8.48772 12.6243 9.04848C12.8999 9.60885 13.0984 10.2492 13.0984 10.7833C13.0984 11.2755 12.7281 11.7667 12.1634 11.7667H11.8984C11.6223 11.7667 11.3984 11.5428 11.3984 11.2667C11.3984 10.9905 11.6223 10.7667 11.8984 10.7667H12.0983C12.0939 10.444 11.9625 9.96876 11.727 9.48975C11.4875 9.00285 11.1808 8.59434 10.8992 8.38388C10.6779 8.2186 10.6326 7.90528 10.7979 7.68407Z" fill="#231E1E"/>
</g>
</svg>
