<svg width="14" height="14" viewBox="0 0 14 14" fill="none" xmlns="http://www.w3.org/2000/svg">
<g id="icon_calendar" opacity="0.6">
<path id="Icon (Stroke)" fill-rule="evenodd" clip-rule="evenodd" d="M4.26389 1.25C4.54003 1.25 4.76389 1.47386 4.76389 1.75V2.15H9.70833V1.75C9.70833 1.47386 9.93219 1.25 10.2083 1.25C10.4845 1.25 10.7083 1.47386 10.7083 1.75V2.20671C11.7181 2.44011 12.4583 3.36547 12.4583 4.44999L12.4583 10.45C12.4583 11.7069 11.4642 12.75 10.2083 12.75H4.375C3.11918 12.75 2.125 11.7069 2.125 10.45V4.44999C2.125 3.40565 2.81137 2.5089 3.76389 2.23547V1.75C3.76389 1.47386 3.98775 1.25 4.26389 1.25ZM4.375 3.15C3.69783 3.15 3.125 3.71865 3.125 4.44999V4.7069C3.1521 4.70235 3.17994 4.69998 3.20833 4.69998H11.375C11.4034 4.69998 11.4312 4.70235 11.4583 4.7069V4.44999C11.4583 3.71865 10.8855 3.15 10.2083 3.15H4.375ZM11.4583 5.69307C11.4312 5.69762 11.4034 5.69998 11.375 5.69998H3.20833C3.17994 5.69998 3.1521 5.69762 3.125 5.69307V10.45C3.125 11.1813 3.69783 11.75 4.375 11.75H10.2083C10.8855 11.75 11.4583 11.1813 11.4583 10.45L11.4583 5.69307ZM9.09854 7.2415C9.29653 7.43399 9.30099 7.75055 9.1085 7.94854L7.06683 10.0485C6.97269 10.1454 6.84338 10.2 6.70833 10.2C6.57328 10.2 6.44398 10.1454 6.34984 10.0485L5.47484 9.14853C5.28234 8.95054 5.2868 8.63399 5.48479 8.44149C5.68279 8.249 5.99934 8.25346 6.19183 8.45145L6.70833 8.98271L8.3915 7.25146C8.584 7.05346 8.90055 7.04901 9.09854 7.2415Z" fill="#231E1E"/>
</g>
</svg>
