<svg width="20" height="20" viewBox="0 0 20 20" fill="none" xmlns="http://www.w3.org/2000/svg">
<g id="icon_favorite_default">
<path id="Union" d="M13.6438 3.25003L13.646 3.25002C16.1108 3.24199 18.0949 5.38168 18.1009 7.53421L18.1009 7.54098L18.1002 7.54667L18.0901 7.62208L18.0954 7.69797L18.101 7.77782L18.1009 7.78231C18.0557 10.0594 16.4225 12.3361 14.7454 14.0926C13.2524 15.6564 11.6961 16.8348 11.1606 17.24L11.1544 17.2447C11.0923 17.2917 11.0374 17.3332 11 17.3625C11 17.3625 11 17.3625 11 17.3625L10.9971 17.3648L10.994 17.3669L10.994 17.3669C10.3643 17.7891 9.64244 17.758 9.01999 17.3686L9.01603 17.3661L8.38354 16.8829C7.48719 16.1862 5.8858 14.8725 4.49981 13.257C3.1156 11.6436 1.93096 9.71172 1.90092 7.78188L1.9009 7.78034L1.9032 7.62894L1.90345 7.61278L1.903 7.59663C1.90251 7.57919 1.90185 7.55998 1.90099 7.5385L1.90085 7.53497L1.90096 7.53144C1.97618 5.06457 4.08689 3.25003 6.40091 3.25003H6.40177C7.6018 3.25247 8.62208 3.76773 9.47548 4.60883L10.0013 5.12709L10.5278 4.60945C11.3852 3.76641 12.4189 3.25039 13.6438 3.25003Z" stroke="#231E1E" stroke-width="1.5"/>
</g>
</svg>
