<svg width="20" height="20" viewBox="0 0 20 20" fill="none" xmlns="http://www.w3.org/2000/svg">
<g id="icon_comment">
<path id="Vector" d="M10.0093 2C8.96966 2 7.94021 2.20477 6.97972 2.60262C6.01922 3.00047 5.1465 3.58361 4.41137 4.31874C2.9267 5.8034 2.09263 7.81704 2.09263 9.91667C2.08571 11.7447 2.71867 13.5176 3.88179 14.9279L2.29846 16.5113C2.18861 16.6226 2.1142 16.7639 2.08461 16.9175C2.05502 17.0711 2.07158 17.23 2.13221 17.3742C2.19796 17.5166 2.30456 17.6363 2.43846 17.7181C2.57237 17.7998 2.72754 17.8399 2.88429 17.8333H10.0093C12.1089 17.8333 14.1226 16.9993 15.6072 15.5146C17.0919 14.0299 17.926 12.0163 17.926 9.91667C17.926 7.81704 17.0919 5.8034 15.6072 4.31874C14.1226 2.83407 12.1089 2 10.0093 2ZM10.0093 16.25H4.79221L5.52846 15.5138C5.67591 15.3654 5.75867 15.1648 5.75867 14.9556C5.75867 14.7465 5.67591 14.5458 5.52846 14.3975C4.49184 13.362 3.84631 11.9992 3.70184 10.5411C3.55737 9.08308 3.92291 7.62005 4.73618 6.40129C5.54945 5.18253 6.76013 4.28345 8.16195 3.85723C9.56378 3.43101 11.07 3.50401 12.424 4.06381C13.7781 4.6236 14.8961 5.63555 15.5877 6.92725C16.2793 8.21894 16.5017 9.71047 16.2169 11.1477C15.9321 12.585 15.1577 13.879 14.0258 14.8094C12.8939 15.7397 11.4745 16.2488 10.0093 16.25Z" fill="#231E1E"/>
</g>
</svg>
