<svg width="20" height="20" viewBox="0 0 20 20" fill="none" xmlns="http://www.w3.org/2000/svg">
<g id="icon_list">
<path id="Icon (Stroke)" fill-rule="evenodd" clip-rule="evenodd" d="M3 3.25C3.41421 3.25 3.75 3.58579 3.75 4V4.01067C3.75 4.42488 3.41421 4.76067 3 4.76067C2.58579 4.76067 2.25 4.42488 2.25 4.01067V4C2.25 3.58579 2.58579 3.25 3 3.25ZM6.51667 4C6.51667 3.58579 6.85245 3.25 7.26667 3.25H18C18.4142 3.25 18.75 3.58579 18.75 4C18.75 4.41421 18.4142 4.75 18 4.75H7.26667C6.85245 4.75 6.51667 4.41421 6.51667 4ZM3 8.65C3.41421 8.65 3.75 8.98579 3.75 9.4V9.41067C3.75 9.82488 3.41421 10.1607 3 10.1607C2.58579 10.1607 2.25 9.82488 2.25 9.41067V9.4C2.25 8.98579 2.58579 8.65 3 8.65ZM6.51667 9.4C6.51667 8.98579 6.85245 8.65 7.26667 8.65H18C18.4142 8.65 18.75 8.98579 18.75 9.4C18.75 9.81421 18.4142 10.15 18 10.15H7.26667C6.85245 10.15 6.51667 9.81421 6.51667 9.4ZM3 14.05C3.41421 14.05 3.75 14.3858 3.75 14.8V14.8107C3.75 15.2249 3.41421 15.5607 3 15.5607C2.58579 15.5607 2.25 15.2249 2.25 14.8107V14.8C2.25 14.3858 2.58579 14.05 3 14.05ZM6.51667 14.8C6.51667 14.3858 6.85245 14.05 7.26667 14.05H18C18.4142 14.05 18.75 14.3858 18.75 14.8C18.75 15.2142 18.4142 15.55 18 15.55H7.26667C6.85245 15.55 6.51667 15.2142 6.51667 14.8Z" fill="#231E1E"/>
</g>
</svg>
