<svg width="14" height="14" viewBox="0 0 14 14" fill="none" xmlns="http://www.w3.org/2000/svg">
<g id="icon_book" opacity="0.6">
<path id="Icon (Stroke)" fill-rule="evenodd" clip-rule="evenodd" d="M1.78571 3.07143C1.78571 1.92741 2.71312 1 3.85714 1H10.9286C12.0726 1 13 1.92741 13 3.07143V10.9286C13 12.0726 12.0726 13 10.9286 13H3.85714C2.71312 13 1.78571 12.0726 1.78571 10.9286V9.07143H1.5C1.22386 9.07143 1 8.84757 1 8.57143C1 8.29529 1.22386 8.07143 1.5 8.07143H1.78571V6.71429H1.5C1.22386 6.71429 1 6.49043 1 6.21429C1 5.93814 1.22386 5.71429 1.5 5.71429H1.78571V4.35714H1.5C1.22386 4.35714 1 4.13329 1 3.85714C1 3.581 1.22386 3.35714 1.5 3.35714H1.78571V3.07143ZM2.78571 4.35714H3.07143C3.34757 4.35714 3.57143 4.13329 3.57143 3.85714C3.57143 3.581 3.34757 3.35714 3.07143 3.35714H2.78571V3.07143C2.78571 2.47969 3.26541 2 3.85714 2H4.53571V12H3.85714C3.26541 12 2.78571 11.5203 2.78571 10.9286V9.07143H3.07143C3.34757 9.07143 3.57143 8.84757 3.57143 8.57143C3.57143 8.29529 3.34757 8.07143 3.07143 8.07143H2.78571V6.71429H3.07143C3.34757 6.71429 3.57143 6.49043 3.57143 6.21429C3.57143 5.93814 3.34757 5.71429 3.07143 5.71429H2.78571V4.35714ZM5.53571 12H10.9286C11.5203 12 12 11.5203 12 10.9286V3.07143C12 2.47969 11.5203 2 10.9286 2H5.53571V12ZM6.89286 3.85714C6.89286 3.581 7.11671 3.35714 7.39286 3.35714H10.1429C10.419 3.35714 10.6429 3.581 10.6429 3.85714C10.6429 4.13329 10.419 4.35714 10.1429 4.35714H7.39286C7.11671 4.35714 6.89286 4.13329 6.89286 3.85714ZM6.89286 6.21429C6.89286 5.93814 7.11671 5.71429 7.39286 5.71429H10.1429C10.419 5.71429 10.6429 5.93814 10.6429 6.21429C10.6429 6.49043 10.419 6.71429 10.1429 6.71429H7.39286C7.11671 6.71429 6.89286 6.49043 6.89286 6.21429Z" fill="#231E1E"/>
</g>
</svg>
