<svg width="20" height="20" viewBox="0 0 20 20" fill="none" xmlns="http://www.w3.org/2000/svg">
<g id="icon_copy">
<g id="Union">
<path fill-rule="evenodd" clip-rule="evenodd" d="M6.16602 1.75C4.64723 1.75 3.41602 2.98122 3.41602 4.5V12.1667C3.41602 13.6855 4.64723 14.9167 6.16602 14.9167H10.4993C12.0181 14.9167 13.2493 13.6854 13.2493 12.1667V4.5C13.2493 2.98122 12.0181 1.75 10.4993 1.75H6.16602ZM4.91602 4.5C4.91602 3.80965 5.47566 3.25 6.16602 3.25H10.4993C11.1897 3.25 11.7493 3.80964 11.7493 4.5V12.1667C11.7493 12.857 11.1897 13.4167 10.4993 13.4167H6.16602C5.47566 13.4167 4.91602 12.857 4.91602 12.1667V4.5Z" fill="#231E1E"/>
<path d="M14.5829 5.41779C14.1686 5.41779 13.8329 5.75357 13.8329 6.16779C13.8329 6.582 14.1686 6.91779 14.5829 6.91779C14.8465 6.91779 14.9252 6.99101 14.9538 7.02395C14.9991 7.07627 15.0829 7.22689 15.0829 7.592V15C15.0829 15.506 15.0566 15.8588 15.0021 16.1115C14.9495 16.3558 14.8816 16.4534 14.834 16.501C14.7864 16.5486 14.6889 16.6165 14.4446 16.6692C14.1919 16.7237 13.8391 16.75 13.3329 16.75H9.99953C9.67989 16.75 9.41821 16.7496 9.19 16.7325C8.95974 16.7154 8.81751 16.6842 8.7302 16.6487C8.6598 16.6202 8.6466 16.5981 8.63987 16.5869C8.62604 16.5638 8.58398 16.4761 8.58398 16.25C8.58398 15.8358 8.2482 15.5 7.83398 15.5C7.41977 15.5 7.08398 15.8358 7.08398 16.25C7.08398 16.6489 7.15648 17.0299 7.35349 17.3584C7.55769 17.6989 7.85263 17.9115 8.16641 18.0388C8.46434 18.1596 8.78542 18.2065 9.07831 18.2284C9.36797 18.25 9.68307 18.25 9.98314 18.25H13.3329C13.8687 18.25 14.3494 18.2242 14.7608 18.1355C15.1807 18.0449 15.5779 17.8785 15.8948 17.5615C16.2117 17.2445 16.378 16.8473 16.4685 16.4275C16.5571 16.0162 16.5829 15.5356 16.5829 15V7.592C16.5829 7.03175 16.4587 6.47027 16.0875 6.04182C15.6996 5.59399 15.1533 5.41779 14.5829 5.41779Z" fill="#231E1E"/>
</g>
</g>
</svg>
