<svg width="20" height="20" viewBox="0 0 20 20" fill="none" xmlns="http://www.w3.org/2000/svg">
<g id="icon_profile">
<path id="Icon (Stroke)" fill-rule="evenodd" clip-rule="evenodd" d="M9.9998 3.75001C8.57616 3.75001 7.40937 4.91652 7.40937 6.37122C7.40937 7.82592 8.57616 8.99243 9.9998 8.99243C11.4234 8.99243 12.5902 7.82592 12.5902 6.37122C12.5902 4.91652 11.4234 3.75001 9.9998 3.75001ZM5.7427 6.37122C5.7427 4.01014 7.64166 2.08334 9.9998 2.08334C12.358 2.08334 14.2569 4.01014 14.2569 6.37122C14.2569 8.73231 12.358 10.6591 9.9998 10.6591C7.64166 10.6591 5.7427 8.73231 5.7427 6.37122ZM0.950063 16.8849C2.41595 14.4179 5.52273 12.9039 9.9998 12.9039C14.4769 12.9039 17.5837 14.4179 19.0495 16.8849C19.2846 17.2806 19.1545 17.7919 18.7588 18.027C18.3632 18.2621 17.8518 18.132 17.6167 17.7363C16.5616 15.9605 14.143 14.5706 9.9998 14.5706C5.8566 14.5706 3.43805 15.9605 2.38288 17.7363C2.14778 18.132 1.63645 18.2621 1.24079 18.027C0.845128 17.7919 0.714966 17.2806 0.950063 16.8849Z" fill="#231E1E"/>
</g>
</svg>
