<svg width="20" height="21" viewBox="0 0 20 21" fill="none" xmlns="http://www.w3.org/2000/svg">
<g id="icon_board_image">
<g id="Vector">
<path fill-rule="evenodd" clip-rule="evenodd" d="M1.875 13C1.875 12.6548 2.15482 12.375 2.5 12.375H8.33333C8.67851 12.375 8.95833 12.6548 8.95833 13C8.95833 13.3452 8.67851 13.625 8.33333 13.625H2.5C2.15482 13.625 1.875 13.3452 1.875 13Z" fill="#A995D8"/>
<path fill-rule="evenodd" clip-rule="evenodd" d="M11.0417 13C11.0417 12.6548 11.3215 12.375 11.6667 12.375H17.5C17.8452 12.375 18.125 12.6548 18.125 13C18.125 13.3452 17.8452 13.625 17.5 13.625H11.6667C11.3215 13.625 11.0417 13.3452 11.0417 13Z" fill="#A995D8"/>
<path fill-rule="evenodd" clip-rule="evenodd" d="M1.875 15.9166C1.875 15.5715 2.15482 15.2916 2.5 15.2916H6.66667C7.01184 15.2916 7.29167 15.5715 7.29167 15.9166C7.29167 16.2618 7.01184 16.5416 6.66667 16.5416H2.5C2.15482 16.5416 1.875 16.2618 1.875 15.9166Z" fill="#A995D8"/>
<path fill-rule="evenodd" clip-rule="evenodd" d="M11.0417 15.9166C11.0417 15.5715 11.3215 15.2916 11.6667 15.2916H15.8333C16.1785 15.2916 16.4583 15.5715 16.4583 15.9166C16.4583 16.2618 16.1785 16.5416 15.8333 16.5416H11.6667C11.3215 16.5416 11.0417 16.2618 11.0417 15.9166Z" fill="#A995D8"/>
<path fill-rule="evenodd" clip-rule="evenodd" d="M2.41292 3.74623C2.83267 3.32648 3.41962 3.20831 4.02639 3.20831H6.79722C7.40756 3.20831 7.99682 3.32593 8.41811 3.74514C8.84019 4.16515 8.95833 4.75299 8.95833 5.3597V8.14026C8.95833 8.74697 8.84019 9.33481 8.41811 9.75482C7.99682 10.174 7.40756 10.2916 6.79722 10.2916H4.02639C3.41968 10.2916 2.83183 10.1735 2.41183 9.75142C1.99261 9.33013 1.875 8.74087 1.875 8.13054V5.3597C1.875 4.75294 1.99316 4.16599 2.41292 3.74623ZM3.2968 4.63012C3.22559 4.70133 3.125 4.87758 3.125 5.3597V8.13054C3.125 8.61881 3.22614 8.79761 3.29789 8.86972C3.36886 8.94104 3.54421 9.04165 4.02639 9.04165H6.79722C7.2855 9.04165 7.4643 8.94051 7.53641 8.86875C7.60773 8.79779 7.70833 8.62244 7.70833 8.14026V5.3597C7.70833 4.87752 7.60773 4.70217 7.53641 4.63121C7.46429 4.55945 7.2855 4.45831 6.79722 4.45831H4.02639C3.54427 4.45831 3.36802 4.5589 3.2968 4.63012Z" fill="#A995D8"/>
<path fill-rule="evenodd" clip-rule="evenodd" d="M11.5796 3.74623C11.9993 3.32648 12.5863 3.20831 13.1931 3.20831H15.9639C16.5742 3.20831 17.1635 3.32593 17.5848 3.74514C18.0069 4.16515 18.125 4.75299 18.125 5.3597V8.14026C18.125 8.74697 18.0069 9.33481 17.5848 9.75482C17.1635 10.174 16.5742 10.2916 15.9639 10.2916H13.1931C12.5863 10.2916 11.9985 10.1735 11.5785 9.75142C11.1593 9.33013 11.0417 8.74087 11.0417 8.13054V5.3597C11.0417 4.75294 11.1598 4.16599 11.5796 3.74623ZM12.4635 4.63012C12.3923 4.70133 12.2917 4.87758 12.2917 5.3597V8.13054C12.2917 8.61881 12.3928 8.79761 12.4646 8.86972C12.5355 8.94104 12.7109 9.04165 13.1931 9.04165H15.9639C16.4522 9.04165 16.631 8.94051 16.7031 8.86875C16.7744 8.79779 16.875 8.62244 16.875 8.14026V5.3597C16.875 4.87752 16.7744 4.70217 16.7031 4.63121C16.631 4.55945 16.4522 4.45831 15.9639 4.45831H13.1931C12.7109 4.45831 12.5347 4.5589 12.4635 4.63012Z" fill="#A995D8"/>
</g>
</g>
</svg>
