<svg width="24" height="24" viewBox="0 0 24 24" fill="none" xmlns="http://www.w3.org/2000/svg">
<g id="icon_return">
<path id="Union" d="M17.1892 12.25L15.4696 10.5303C15.1767 10.2374 15.1767 9.76256 15.4696 9.46967C15.7625 9.17678 16.2373 9.17678 16.5302 9.46967L20.0605 13L16.5302 16.5303C16.2373 16.8232 15.7625 16.8232 15.4696 16.5303C15.1767 16.2374 15.1767 15.7626 15.4696 15.4697L17.1892 13.75H7C5.48122 13.75 4.25 12.5188 4.25 11V5C4.25 4.58579 4.58579 4.25 5 4.25C5.41421 4.25 5.75 4.58579 5.75 5V11C5.75 11.6904 6.30964 12.25 7 12.25H17.1892Z" fill="#231E1E"/>
</g>
</svg>
