<svg width="20" height="20" viewBox="0 0 20 20" fill="none" xmlns="http://www.w3.org/2000/svg">
<g id="icon_favorite_active">
<path id="Union" d="M18.8509 7.53213C18.8438 4.968 16.5255 2.49063 13.6436 2.50003C12.1847 2.50046 10.9705 3.12237 10.0019 4.07466C9.04032 3.1269 7.84004 2.50272 6.4025 2.50003H6.40091C3.71902 2.50003 1.24 4.60018 1.1513 7.50858L1.15039 7.53857L1.15159 7.56854C1.15235 7.58753 1.1529 7.60365 1.15329 7.61752L1.15081 7.78047L1.15101 7.79355C1.18531 9.99734 2.5198 12.101 3.93059 13.7454C5.36642 15.419 7.01556 16.7696 7.92575 17.4769L8.58854 17.9833L8.6222 18.0044C9.46597 18.5323 10.509 18.5951 11.4117 17.9898L11.4378 17.9723L11.4625 17.9529C11.4949 17.9276 11.5458 17.889 11.6132 17.838C12.1537 17.429 13.7508 16.2205 15.2879 14.6106C16.9775 12.8409 18.7994 10.3814 18.8507 7.79721L18.8515 7.75915L18.8436 7.64579L18.8511 7.58973L18.8509 7.53213Z" fill="#A995D8"/>
</g>
</svg>
