<svg width="20" height="20" viewBox="0 0 20 20" fill="none" xmlns="http://www.w3.org/2000/svg">
<g id="icon_warning">
<g id="Union">
<path d="M10.75 1.5C10.75 1.08579 10.4142 0.75 10 0.75C9.58579 0.75 9.25 1.08579 9.25 1.5V3.33C9.25 3.74421 9.58579 4.08 10 4.08C10.4142 4.08 10.75 3.74421 10.75 3.33V1.5Z" fill="#231E1E"/>
<path fill-rule="evenodd" clip-rule="evenodd" d="M3.25 12.1875C3.25 8.37833 6.25087 5.25 10 5.25C13.7491 5.25 16.75 8.37833 16.75 12.1875V16.25H18.3327C18.7469 16.25 19.0827 16.5858 19.0827 17C19.0827 17.4142 18.7469 17.75 18.3327 17.75H1.66602C1.2518 17.75 0.916016 17.4142 0.916016 17C0.916016 16.5858 1.2518 16.25 1.66602 16.25H3.25V12.1875ZM15.25 12.1875V16.25H4.75V12.1875C4.75 9.16292 7.12247 6.75 10 6.75C12.8775 6.75 15.25 9.16292 15.25 12.1875Z" fill="#231E1E"/>
<path d="M17.5219 2.29382C17.8199 2.58156 17.8282 3.05636 17.5404 3.35432L16.2692 4.67071C15.9815 4.96867 15.5067 4.97696 15.2087 4.68922C14.9108 4.40149 14.9025 3.92668 15.1902 3.62872L16.4614 2.31233C16.7492 2.01437 17.224 2.00608 17.5219 2.29382Z" fill="#231E1E"/>
<path d="M2.45956 3.35432C2.17183 3.05636 2.18011 2.58156 2.47807 2.29382C2.77603 2.00608 3.25083 2.01437 3.53857 2.31233L4.8098 3.62872C5.09753 3.92668 5.08925 4.40149 4.79129 4.68922C4.49333 4.97696 4.01852 4.96867 3.73079 4.67071L2.45956 3.35432Z" fill="#231E1E"/>
</g>
</g>
</svg>
