<svg width="16" height="16" viewBox="0 0 16 16" fill="none" xmlns="http://www.w3.org/2000/svg">
<g id="icon_help" opacity="0.6">
<path id="?" d="M7.48267 9.91368V9.87278C7.48722 9.43868 7.53267 9.09323 7.61903 8.83641C7.7054 8.57959 7.82812 8.37164 7.98722 8.21255C8.14631 8.05346 8.33722 7.90687 8.55994 7.77278C8.69403 7.69096 8.81449 7.59437 8.92131 7.483C9.02812 7.36937 9.11222 7.23869 9.17358 7.09096C9.23722 6.94323 9.26903 6.77959 9.26903 6.60005C9.26903 6.37732 9.21676 6.18414 9.11222 6.0205C9.00767 5.85687 8.8679 5.73073 8.6929 5.64209C8.5179 5.55346 8.32358 5.50914 8.10994 5.50914C7.92358 5.50914 7.74403 5.54778 7.57131 5.62505C7.39858 5.70232 7.25426 5.82391 7.13835 5.98982C7.02244 6.15573 6.9554 6.37278 6.93722 6.64096H6.07812C6.09631 6.25459 6.19631 5.92391 6.37812 5.64891C6.56222 5.37391 6.80426 5.16369 7.10426 5.01823C7.40653 4.87278 7.74176 4.80005 8.10994 4.80005C8.50994 4.80005 8.85767 4.87959 9.15312 5.03869C9.45085 5.19778 9.6804 5.41596 9.84176 5.69323C10.0054 5.9705 10.0872 6.28641 10.0872 6.64096C10.0872 6.89096 10.0486 7.11709 9.97131 7.31937C9.89631 7.52164 9.78722 7.70232 9.64403 7.86141C9.50312 8.0205 9.33267 8.16141 9.13267 8.28414C8.93267 8.40914 8.77244 8.54096 8.65199 8.67959C8.53153 8.81596 8.44403 8.97846 8.38949 9.16709C8.33494 9.35573 8.3054 9.59096 8.30085 9.87278V9.91368H7.48267ZM7.91903 11.9319C7.75085 11.9319 7.60653 11.8716 7.48608 11.7512C7.36562 11.6307 7.3054 11.4864 7.3054 11.3182C7.3054 11.15 7.36562 11.0057 7.48608 10.8853C7.60653 10.7648 7.75085 10.7046 7.91903 10.7046C8.08722 10.7046 8.23153 10.7648 8.35199 10.8853C8.47244 11.0057 8.53267 11.15 8.53267 11.3182C8.53267 11.4296 8.50426 11.5319 8.44744 11.625C8.3929 11.7182 8.31903 11.7932 8.22585 11.85C8.13494 11.9046 8.03267 11.9319 7.91903 11.9319Z" fill="#231E1E" stroke="#231E1E" stroke-width="0.5"/>
<circle id="Ellipse 1" cx="8" cy="8" r="7.25" stroke="#231E1E" stroke-width="1.5"/>
</g>
</svg>
