<svg width="84" height="31" viewBox="0 0 84 31" fill="none" xmlns="http://www.w3.org/2000/svg">
<g id="logo">
<g id="Union">
<path d="M16.7124 9.81659H9.67075V7.68594C9.67075 6.69096 9.57904 6.05779 9.39561 5.78644C9.21218 5.51508 8.91666 5.37438 8.49885 5.37438C8.04028 5.37438 7.6938 5.55528 7.45942 5.92714C7.22504 6.299 7.11295 6.85176 7.11295 7.59548C7.11295 8.56031 7.24542 9.28393 7.51037 9.76634C7.76513 10.2488 8.47847 10.8417 9.65037 11.5251C13.0336 13.505 15.1532 15.1231 16.0296 16.3895C16.906 17.6558 17.3442 19.706 17.3442 22.5201C17.3442 24.5704 17.0996 26.0779 16.6105 27.0528C16.1213 28.0277 15.1838 28.8417 13.7877 29.495C12.3916 30.1483 10.7713 30.4799 8.91666 30.4799C6.88875 30.4799 5.15638 30.098 3.71952 29.3442C2.28266 28.5905 1.34514 27.6156 0.896761 26.4498C0.44838 25.2739 0.234381 23.6156 0.234381 21.4548V19.5653H7.28618V23.0729C7.28618 24.1483 7.38809 24.8417 7.58171 25.1533C7.77533 25.4648 8.13199 25.6156 8.63132 25.6156C9.13066 25.6156 9.5077 25.4246 9.76247 25.0327C10.007 24.6407 10.1293 24.0578 10.1293 23.294C10.1293 21.5955 9.89494 20.49 9.42618 19.9674C8.94723 19.4447 7.76513 18.5704 5.86971 17.3543C3.98447 16.1181 2.73104 15.2236 2.11962 14.6709C1.50819 14.1181 0.998666 13.3442 0.601237 12.3593C0.193619 11.3744 0 10.1181 0 8.59046C0 6.38945 0.285333 4.77136 0.855999 3.75628C1.42667 2.74121 2.354 1.93719 3.62781 1.36432C4.90161 0.791458 6.44037 0.5 8.24409 0.5C10.2108 0.5 11.8923 0.811558 13.2782 1.44472C14.6641 2.07789 15.5812 2.86181 16.0398 3.81659C16.4882 4.77136 16.7124 6.38945 16.7124 8.68091V9.81659Z" fill="#452F6B"/>
<path d="M19.0052 1.10299H31.6516V6.86179H26.5869V12.3191H31.3255V17.7965H26.5869V24.1281H32.1611V29.8869H19.0052V1.10299Z" fill="#452F6B"/>
<path d="M41.1898 24.1281V1.10299H33.5979V29.8869H45.8061V24.1281H41.1898Z" fill="#452F6B"/>
<path d="M64.1592 1.10299V20.3392C64.1592 22.5201 64.0878 24.0477 63.9452 24.9322C63.8025 25.8166 63.3745 26.7211 62.6612 27.6558C61.9478 28.5905 61.0205 29.294 59.8588 29.7764C58.6971 30.2588 57.3316 30.5 55.7622 30.5C54.0197 30.5 52.4809 30.2186 51.1459 29.6457C49.811 29.0729 48.8123 28.3392 48.1499 27.4246C47.4876 26.51 47.1003 25.5452 46.978 24.5402C46.8558 23.5251 46.7946 21.3945 46.7946 18.1482V1.10299H54.3865V22.6909C54.3865 23.9472 54.4578 24.7513 54.5903 25.103C54.733 25.4548 55.0081 25.6256 55.4259 25.6256C55.9049 25.6256 56.2208 25.4347 56.3533 25.0528C56.4959 24.6709 56.5571 23.7563 56.5571 22.3191V1.10299H64.1592Z" fill="#452F6B"/>
<path fill-rule="evenodd" clip-rule="evenodd" d="M73.9216 1.10299H66.3399V29.8869H75.1241C78.1711 29.8869 80.199 29.7161 81.1772 29.3744C82.1555 29.0327 82.8791 28.3894 83.3274 27.4548C83.7758 26.5201 84 25.0829 84 23.1332V20.4598C84 18.5904 83.6841 17.1935 83.0625 16.2889C82.4409 15.3844 81.2486 14.7311 79.4958 14.3392C81.0753 13.9874 82.125 13.4749 82.6651 12.8115C83.2051 12.1482 83.4701 10.9723 83.4701 9.29395C83.4701 6.81154 83.093 5.00249 82.339 3.88691C81.5747 2.76128 80.5862 2.02761 79.3531 1.65576C78.1201 1.2839 76.3164 1.10299 73.9216 1.10299ZM73.942 6.02775V12.4296C74.0198 12.4272 74.0936 12.4248 74.1631 12.4226C74.385 12.4154 74.5642 12.4095 74.6961 12.4095C75.44 12.4095 75.919 12.2286 76.1228 11.8668C76.3266 11.505 76.4285 10.4698 76.4285 8.76129C76.4285 7.85677 76.347 7.23365 76.1737 6.87184C76.0107 6.51003 75.7865 6.27887 75.5113 6.18842C75.2374 6.09836 74.721 6.03819 73.942 6.02775ZM73.942 24.9623V16.902C75.0732 16.9321 75.7661 17.0829 76.0311 17.3442C76.296 17.6055 76.4285 18.3492 76.4285 19.5854V22.2688C76.4285 23.4347 76.2858 24.1683 75.9903 24.4598C75.6948 24.7613 75.012 24.9221 73.942 24.9623Z" fill="#452F6B"/>
</g>
</g>
</svg>
