<svg width="28" height="10" viewBox="0 0 28 10" fill="none" xmlns="http://www.w3.org/2000/svg">
<g id="logo">
<g id="Union">
<path d="M5.57079 3.10553H3.22358V2.39531C3.22358 2.06365 3.19301 1.8526 3.13187 1.76215C3.07073 1.67169 2.97222 1.62479 2.83295 1.62479C2.68009 1.62479 2.5646 1.68509 2.48647 1.80905C2.40835 1.933 2.37098 2.11725 2.37098 2.36516C2.37098 2.68677 2.41514 2.92798 2.50346 3.08878C2.58838 3.24958 2.82616 3.44724 3.21679 3.67505C4.34454 4.33501 5.05107 4.87438 5.3432 5.29649C5.63533 5.7186 5.78139 6.40202 5.78139 7.34004C5.78139 8.02346 5.69987 8.52597 5.53682 8.85093C5.37377 9.17589 5.06126 9.44724 4.5959 9.665C4.13054 9.88276 3.59044 9.99331 2.97222 9.99331C2.29625 9.99331 1.71879 9.866 1.23984 9.61475C0.760888 9.36349 0.44838 9.03853 0.29892 8.64992C0.14946 8.25796 0.0781269 7.7052 0.0781269 6.98493V6.35511H2.42873V7.52429C2.42873 7.88275 2.4627 8.11391 2.52724 8.21776C2.59178 8.32162 2.71066 8.37187 2.87711 8.37187C3.04355 8.37187 3.16923 8.30821 3.25416 8.17756C3.33568 8.04691 3.37644 7.8526 3.37644 7.598C3.37644 7.03183 3.29831 6.66332 3.14206 6.48912C2.98241 6.31491 2.58838 6.02346 1.95657 5.6181C1.32816 5.20603 0.910348 4.90788 0.706539 4.72362C0.50273 4.53937 0.332889 4.28141 0.200412 3.9531C0.0645396 3.62479 0 3.20603 0 2.69682C0 1.96315 0.095111 1.42379 0.285333 1.08543C0.475555 0.747069 0.784666 0.479062 1.20927 0.288107C1.63387 0.0971525 2.14679 0 2.74803 0C3.40362 0 3.96409 0.103853 4.42606 0.314908C4.88803 0.525964 5.19374 0.78727 5.3466 1.10553C5.49606 1.42379 5.57079 1.96315 5.57079 2.72697V3.10553Z" fill="#BAB5C8"/>
<path d="M6.33507 0.200997H10.5505V2.1206H8.86231V3.93969H10.4418V5.76549H8.86231V7.87605H10.7204V9.79564H6.33507V0.200997Z" fill="#BAB5C8"/>
<path d="M13.7299 7.87605V0.200997H11.1993V9.79564H15.2687V7.87605H13.7299Z" fill="#BAB5C8"/>
<path d="M21.3864 0.200997V6.61306C21.3864 7.34003 21.3626 7.84924 21.3151 8.14405C21.2675 8.43886 21.1248 8.74037 20.8871 9.05193C20.6493 9.36348 20.3402 9.59799 19.9529 9.75879C19.5657 9.9196 19.1105 10 18.5874 10C18.0066 10 17.4936 9.9062 17.0486 9.71524C16.6037 9.52429 16.2708 9.27973 16.05 8.97487C15.8292 8.67002 15.7001 8.34841 15.6593 8.0134C15.6186 7.67504 15.5982 6.96482 15.5982 5.88274V0.200997H18.1288V7.39698C18.1288 7.81574 18.1526 8.08375 18.1968 8.201C18.2443 8.31826 18.336 8.37521 18.4753 8.37521C18.635 8.37521 18.7403 8.31156 18.7844 8.18425C18.832 8.05695 18.8524 7.75209 18.8524 7.27303V0.200997H21.3864Z" fill="#BAB5C8"/>
<path fill-rule="evenodd" clip-rule="evenodd" d="M24.6405 0.200997H22.1133V9.79564H25.0414C26.057 9.79564 26.733 9.73869 27.0591 9.62479C27.3852 9.51089 27.6264 9.29648 27.7758 8.98492C27.9253 8.67337 28 8.1943 28 7.54439V6.65326C28 6.03015 27.8947 5.56449 27.6875 5.26298C27.4803 4.96147 27.0829 4.74371 26.4986 4.61306C27.0251 4.49581 27.375 4.32495 27.555 4.10385C27.735 3.88274 27.8234 3.49078 27.8234 2.93132C27.8234 2.10385 27.6977 1.50083 27.4463 1.12897C27.1916 0.753761 26.8621 0.509205 26.451 0.385252C26.04 0.261299 25.4388 0.200997 24.6405 0.200997ZM24.6473 1.84258V3.97654C24.6733 3.97574 24.6979 3.97495 24.721 3.97419C24.795 3.97179 24.8547 3.96984 24.8987 3.96984C25.1467 3.96984 25.3063 3.90954 25.3743 3.78894C25.4422 3.66834 25.4762 3.32328 25.4762 2.75376C25.4762 2.45226 25.449 2.24455 25.3912 2.12395C25.3369 2.00334 25.2622 1.92629 25.1704 1.89614C25.0791 1.86612 24.907 1.84606 24.6473 1.84258ZM24.6473 8.1541V5.46733C25.0244 5.47738 25.2554 5.52763 25.3437 5.61474C25.432 5.70184 25.4762 5.94975 25.4762 6.36181V7.25628C25.4762 7.64489 25.4286 7.88945 25.3301 7.9866C25.2316 8.0871 25.004 8.1407 24.6473 8.1541Z" fill="#BAB5C8"/>
</g>
</g>
</svg>
